<svg width="167" height="118" viewBox="0 0 167 118" fill="none" xmlns="http://www.w3.org/2000/svg">
<g clip-path="url(#clip0_302_325)">
<rect x="-47" y="-33" width="250" height="200" fill="white"/>
<path fill-rule="evenodd" clip-rule="evenodd" d="M160 32C163.866 32 167 35.134 167 39C167 42.866 163.866 46 160 46H120C123.866 46 127 49.134 127 53C127 56.866 123.866 60 120 60H142C145.866 60 149 63.134 149 67C149 70.866 145.866 74 142 74H131.826C126.952 74 123 77.134 123 81C123 83.5773 125 85.9107 129 88C132.866 88 136 91.134 136 95C136 98.866 132.866 102 129 102H46C42.134 102 39 98.866 39 95C39 91.134 42.134 88 46 88H7C3.13401 88 0 84.866 0 81C0 77.134 3.13401 74 7 74H47C50.866 74 54 70.866 54 67C54 63.134 50.866 60 47 60H22C18.134 60 15 56.866 15 53C15 49.134 18.134 46 22 46H62C58.134 46 55 42.866 55 39C55 35.134 58.134 32 62 32H160ZM160 60C163.866 60 167 63.134 167 67C167 70.866 163.866 74 160 74C156.134 74 153 70.866 153 67C153 63.134 156.134 60 160 60Z" fill="#F3F7FF"/>
<g clip-path="url(#clip1_302_325)">
<path d="M38 62.5L76 73.5L113 61L125 78L114 81V105L76 116.5L38 105V81L25 77L38 62.5Z" fill="white"/>
<path d="M98 98L114 81V105L82 115L98 98Z" fill="#E8F0FE"/>
<path d="M29 52L63.5 41.5L75.5 51.5L88.5 41.5L123.5 50.5L113 61L125.5 78L88.5 87.5L76.5 72.5L62.5 87.5L25.5 77L39 62L29 52Z" fill="#E8F0FE"/>
<line x1="76" y1="81" x2="76" y2="84" stroke="#1F64E7" stroke-width="2" stroke-linecap="round" stroke-linejoin="round"/>
<line x1="108.272" y1="95.2127" x2="102.213" y2="96.7276" stroke="#75A4FE" stroke-width="2" stroke-linecap="round" stroke-linejoin="round"/>
<line x1="108.272" y1="100.213" x2="98.2127" y2="102.728" stroke="#75A4FE" stroke-width="2" stroke-linecap="round" stroke-linejoin="round"/>
<line x1="76" y1="89" x2="76" y2="117" stroke="#1F64E7" stroke-width="2" stroke-linecap="round" stroke-linejoin="round"/>
<line x1="76.6617" y1="116.75" x2="113.75" y2="105.338" stroke="#1F64E7" stroke-width="2" stroke-linecap="round" stroke-linejoin="round"/>
<line x1="38.2499" y1="105.338" x2="75.3383" y2="116.75" stroke="#1F64E7" stroke-width="2" stroke-linecap="round" stroke-linejoin="round"/>
<line x1="38" y1="81" x2="38" y2="105" stroke="#1F64E7" stroke-width="2" stroke-linecap="round" stroke-linejoin="round"/>
<line x1="25.2339" y1="77.309" x2="62.309" y2="87.7661" stroke="#1F64E7" stroke-width="2" stroke-linecap="round" stroke-linejoin="round"/>
<line x1="62.9059" y1="87.5889" x2="75.5889" y2="73.0941" stroke="#1F64E7" stroke-width="2" stroke-linecap="round" stroke-linejoin="round"/>
<line x1="38.0941" y1="62.4111" x2="25.4111" y2="76.9059" stroke="#1F64E7" stroke-width="2" stroke-linecap="round" stroke-linejoin="round"/>
<line x1="74.7614" y1="72.6825" x2="38.6825" y2="62.2386" stroke="#1F64E7" stroke-width="2" stroke-linecap="round" stroke-linejoin="round"/>
<line x1="75.3175" y1="51.2386" x2="39.2386" y2="61.6825" stroke="#1F64E7" stroke-width="2" stroke-linecap="round" stroke-linejoin="round"/>
<line x1="28.4129" y1="51.9386" x2="38.9386" y2="61.5871" stroke="#1F64E7" stroke-width="2" stroke-linecap="round" stroke-linejoin="round"/>
<line x1="63.3359" y1="41.2486" x2="29.2486" y2="51.6641" stroke="#1F64E7" stroke-width="2" stroke-linecap="round" stroke-linejoin="round"/>
<line x1="75.5907" y1="51.1174" x2="64.1174" y2="41.4093" stroke="#1F64E7" stroke-width="2" stroke-linecap="round" stroke-linejoin="round"/>
<line x1="87.8171" y1="41.4023" x2="76.4023" y2="50.1829" stroke="#1F64E7" stroke-width="2" stroke-linecap="round" stroke-linejoin="round"/>
<line x1="76" y1="62" x2="76" y2="52" stroke="#1F64E7" stroke-width="2" stroke-linecap="round" stroke-linejoin="round"/>
<line x1="123.774" y1="50.7045" x2="88.7045" y2="41.2263" stroke="#1F64E7" stroke-width="2" stroke-linecap="round" stroke-linejoin="round"/>
<line x1="113.061" y1="60.5871" x2="123.587" y2="50.9386" stroke="#1F64E7" stroke-width="2" stroke-linecap="round" stroke-linejoin="round"/>
<line x1="113.338" y1="61.2499" x2="76.2499" y2="72.6617" stroke="#1F64E7" stroke-width="2" stroke-linecap="round" stroke-linejoin="round"/>
<line x1="112.783" y1="60.7203" x2="75.7203" y2="51.217" stroke="#1F64E7" stroke-width="2" stroke-linecap="round" stroke-linejoin="round"/>
<line x1="125.604" y1="77.7748" x2="113.775" y2="61.3962" stroke="#1F64E7" stroke-width="2" stroke-linecap="round" stroke-linejoin="round"/>
<line x1="88.7203" y1="87.783" x2="125.783" y2="78.2797" stroke="#1F64E7" stroke-width="2" stroke-linecap="round" stroke-linejoin="round"/>
<line x1="77.4" y1="73.2" x2="88.2" y2="87.6" stroke="#1F64E7" stroke-width="2" stroke-linecap="round" stroke-linejoin="round"/>
<line x1="114" y1="82" x2="114" y2="105" stroke="#1F64E7" stroke-width="2" stroke-linecap="round" stroke-linejoin="round"/>
</g>
<g clip-path="url(#clip2_302_325)">
<line x1="90" y1="17.4142" x2="80.4142" y2="27" stroke="#75A4FE" stroke-width="2" stroke-linecap="round"/>
<line x1="89.5874" y1="26.9327" x2="80.9327" y2="17.4126" stroke="#75A4FE" stroke-width="2" stroke-linecap="round"/>
<line x1="53.0941" y1="27.4111" x2="47.4111" y2="33.9059" stroke="#75A4FE" stroke-width="2" stroke-linecap="round"/>
<line x1="52.5889" y1="33.9059" x2="46.9059" y2="27.4111" stroke="#75A4FE" stroke-width="2" stroke-linecap="round"/>
<circle cx="61" cy="18" r="3" fill="#75A4FE"/>
<circle cx="104" cy="31" r="3" fill="#75A4FE"/>
<circle cx="75" cy="4" r="3" stroke="#75A4FE" stroke-width="2"/>
</g>
</g>
<defs>
<clipPath id="clip0_302_325">
<rect width="167" height="118" fill="white"/>
</clipPath>
<clipPath id="clip1_302_325">
<rect width="103" height="78" fill="white" transform="translate(24 40)"/>
</clipPath>
<clipPath id="clip2_302_325">
<rect width="62" height="35" fill="white" transform="translate(45)"/>
</clipPath>
</defs>
</svg>
